  0
SECTION
  2
HEADER
  9
$ANGBASE
  50
0.0
  9
$ANGDIR
  70
1
  9
$MEASUREMENT
  70
0
  0
ENDSEC
  0
SECTION
  2
TABLES
  0
TABLE
  2
LTYPE
  70
4
  0
LTYPE
  5
40F
  2
CONTINUOUS
  70
0
  3
Solid line
  72
65
  73
0
  40
0.0
  0
LTYPE
  5
410
  2
DASHDOT
 70
0
  3
Dash Dot ____ _ ____ _
 72
65
 73
4
 40
2.0
 49
1.25
 49
-0.25
 49
0.25
 49
-0.25
  0
LTYPE
  5
411
  2
DASHED
 70
0
  3
Dashed __ __ __ __ __
 72
65
 73
2
 40
0.75
 49
0.5
 49
-0.25
  0
LTYPE
  5
43B
  2
DOTTED
 70
0
  3
Dotted .  .  .  .
 72
65
 73
2
 40
0.2
 49
0.0
 49
-0.2
  0
ENDTAB
  0
TABLE
  2
STYLE
  70
4
  0
STYLE
  2
KICAD
  70
0
  40
0
  41
1
  42
1
  50
0
  71
0
  3
isocp.shx
  0
STYLE
  2
KICADB
  70
0
  40
0
  41
1
  42
1
  50
0
  71
0
  3
isocp.shx
  0
STYLE
  2
KICADI
  70
0
  40
0
  41
1
  42
1
  50
15
  71
0
  3
isocp.shx
  0
STYLE
  2
KICADBI
  70
0
  40
0
  41
1
  42
1
  50
15
  71
0
  3
isocp.shx
  0
ENDTAB
  0
TABLE
  2
LAYER
  70
1
  0
LAYER
  2
BLACK
  70
0
  62
7
  6
CONTINUOUS
  0
ENDTAB
  0
ENDSEC
  0
SECTION
  2
ENTITIES
0
LINE
8
BLACK
6
CONTINUOUS
10
6.79532
20
-1.29823
11
6.79532
21
-1.29823
0
LINE
8
BLACK
6
CONTINUOUS
10
6.79532
20
-1.29823
11
6.79547
21
-1.29824
0
LINE
8
BLACK
6
CONTINUOUS
10
6.79547
20
-1.29824
11
6.79565
21
-1.2983
0
LINE
8
BLACK
6
CONTINUOUS
10
6.79565
20
-1.2983
11
6.79583
21
-1.29839
0
LINE
8
BLACK
6
CONTINUOUS
10
6.79583
20
-1.29839
11
6.79597
21
-1.29851
0
LINE
8
BLACK
6
CONTINUOUS
10
6.79597
20
-1.29851
11
6.79601
21
-1.29855
0
LINE
8
BLACK
6
CONTINUOUS
10
6.79601
20
-1.29855
11
6.83531
21
-1.33785
0
LINE
8
BLACK
6
CONTINUOUS
10
6.83531
20
-1.33785
11
6.83535
21
-1.33788
0
LINE
8
BLACK
6
CONTINUOUS
10
6.83535
20
-1.33788
11
6.83547
21
-1.33803
0
LINE
8
BLACK
6
CONTINUOUS
10
6.83547
20
-1.33803
11
6.83556
21
-1.3382
0
LINE
8
BLACK
6
CONTINUOUS
10
6.83556
20
-1.3382
11
6.83562
21
-1.33839
0
LINE
8
BLACK
6
CONTINUOUS
10
6.83562
20
-1.33839
11
6.83563
21
-1.33858
0
LINE
8
BLACK
6
CONTINUOUS
10
6.83563
20
-1.33858
11
6.83563
21
-1.33863
0
LINE
8
BLACK
6
CONTINUOUS
10
6.83563
20
-1.33863
11
6.83563
21
-1.99923
0
LINE
8
BLACK
6
CONTINUOUS
10
6.83563
20
-1.99923
11
6.89999
21
-1.99923
0
LINE
8
BLACK
6
CONTINUOUS
10
6.89999
20
-1.99923
11
6.90004
21
-1.99922
0
LINE
8
BLACK
6
CONTINUOUS
10
6.90004
20
-1.99922
11
6.90009
21
-1.99923
0
LINE
8
BLACK
6
CONTINUOUS
10
6.90009
20
-1.99923
11
6.90009
21
-1.99923
0
LINE
8
BLACK
6
CONTINUOUS
10
6.90009
20
-1.99923
11
6.90023
21
-1.99924
0
LINE
8
BLACK
6
CONTINUOUS
10
6.90023
20
-1.99924
11
6.90042
21
-1.9993
0
LINE
8
BLACK
6
CONTINUOUS
10
6.90042
20
-1.9993
11
6.90059
21
-1.99939
0
LINE
8
BLACK
6
CONTINUOUS
10
6.90059
20
-1.99939
11
6.90074
21
-1.99951
0
LINE
8
BLACK
6
CONTINUOUS
10
6.90074
20
-1.99951
11
6.90086
21
-1.99966
0
LINE
8
BLACK
6
CONTINUOUS
10
6.90086
20
-1.99966
11
6.90095
21
-1.99983
0
LINE
8
BLACK
6
CONTINUOUS
10
6.90095
20
-1.99983
11
6.90101
21
-2.00002
0
LINE
8
BLACK
6
CONTINUOUS
10
6.90101
20
-2.00002
11
6.90103
21
-2.00021
0
LINE
8
BLACK
6
CONTINUOUS
10
6.90103
20
-2.00021
11
6.90102
21
-2.00026
0
LINE
8
BLACK
6
CONTINUOUS
10
6.90102
20
-2.00026
11
6.90102
21
-2.30016
0
LINE
8
BLACK
6
CONTINUOUS
10
6.90102
20
-2.30016
11
6.90103
21
-2.30021
0
LINE
8
BLACK
6
CONTINUOUS
10
6.90103
20
-2.30021
11
6.90102
21
-2.30026
0
LINE
8
BLACK
6
CONTINUOUS
10
6.90102
20
-2.30026
11
6.90102
21
-2.30026
0
LINE
8
BLACK
6
CONTINUOUS
10
6.90102
20
-2.30026
11
6.90101
21
-2.30041
0
LINE
8
BLACK
6
CONTINUOUS
10
6.90101
20
-2.30041
11
6.90095
21
-2.30059
0
LINE
8
BLACK
6
CONTINUOUS
10
6.90095
20
-2.30059
11
6.90086
21
-2.30076
0
LINE
8
BLACK
6
CONTINUOUS
10
6.90086
20
-2.30076
11
6.90074
21
-2.30091
0
LINE
8
BLACK
6
CONTINUOUS
10
6.90074
20
-2.30091
11
6.90059
21
-2.30103
0
LINE
8
BLACK
6
CONTINUOUS
10
6.90059
20
-2.30103
11
6.90042
21
-2.30113
0
LINE
8
BLACK
6
CONTINUOUS
10
6.90042
20
-2.30113
11
6.90023
21
-2.30118
0
LINE
8
BLACK
6
CONTINUOUS
10
6.90023
20
-2.30118
11
6.90004
21
-2.3012
0
LINE
8
BLACK
6
CONTINUOUS
10
6.90004
20
-2.3012
11
6.89999
21
-2.3012
0
LINE
8
BLACK
6
CONTINUOUS
10
6.89999
20
-2.3012
11
6.83563
21
-2.3012
0
LINE
8
BLACK
6
CONTINUOUS
10
6.83563
20
-2.3012
11
6.83563
21
-2.87723
0
LINE
8
BLACK
6
CONTINUOUS
10
6.83563
20
-2.87723
11
6.98799
21
-2.87723
0
LINE
8
BLACK
6
CONTINUOUS
10
6.98799
20
-2.87723
11
6.98804
21
-2.87722
0
LINE
8
BLACK
6
CONTINUOUS
10
6.98804
20
-2.87722
11
6.98809
21
-2.87723
0
LINE
8
BLACK
6
CONTINUOUS
10
6.98809
20
-2.87723
11
6.98809
21
-2.87723
0
LINE
8
BLACK
6
CONTINUOUS
10
6.98809
20
-2.87723
11
6.98823
21
-2.87724
0
LINE
8
BLACK
6
CONTINUOUS
10
6.98823
20
-2.87724
11
6.98842
21
-2.8773
0
LINE
8
BLACK
6
CONTINUOUS
10
6.98842
20
-2.8773
11
6.98859
21
-2.87739
0
LINE
8
BLACK
6
CONTINUOUS
10
6.98859
20
-2.87739
11
6.98874
21
-2.87751
0
LINE
8
BLACK
6
CONTINUOUS
10
6.98874
20
-2.87751
11
6.98886
21
-2.87766
0
LINE
8
BLACK
6
CONTINUOUS
10
6.98886
20
-2.87766
11
6.98895
21
-2.87783
0
LINE
8
BLACK
6
CONTINUOUS
10
6.98895
20
-2.87783
11
6.98901
21
-2.87802
0
LINE
8
BLACK
6
CONTINUOUS
10
6.98901
20
-2.87802
11
6.98903
21
-2.87821
0
LINE
8
BLACK
6
CONTINUOUS
10
6.98903
20
-2.87821
11
6.98902
21
-2.87826
0
LINE
8
BLACK
6
CONTINUOUS
10
6.98902
20
-2.87826
11
6.98902
21
-3.11416
0
LINE
8
BLACK
6
CONTINUOUS
10
6.98902
20
-3.11416
11
6.98903
21
-3.11421
0
LINE
8
BLACK
6
CONTINUOUS
10
6.98903
20
-3.11421
11
6.98902
21
-3.11426
0
LINE
8
BLACK
6
CONTINUOUS
10
6.98902
20
-3.11426
11
6.98901
21
-3.11441
0
LINE
8
BLACK
6
CONTINUOUS
10
6.98901
20
-3.11441
11
6.98895
21
-3.11459
0
LINE
8
BLACK
6
CONTINUOUS
10
6.98895
20
-3.11459
11
6.98886
21
-3.11476
0
LINE
8
BLACK
6
CONTINUOUS
10
6.98886
20
-3.11476
11
6.98874
21
-3.11491
0
LINE
8
BLACK
6
CONTINUOUS
10
6.98874
20
-3.11491
11
6.98859
21
-3.11503
0
LINE
8
BLACK
6
CONTINUOUS
10
6.98859
20
-3.11503
11
6.98842
21
-3.11513
0
LINE
8
BLACK
6
CONTINUOUS
10
6.98842
20
-3.11513
11
6.98823
21
-3.11518
0
LINE
8
BLACK
6
CONTINUOUS
10
6.98823
20
-3.11518
11
6.98804
21
-3.1152
0
LINE
8
BLACK
6
CONTINUOUS
10
6.98804
20
-3.1152
11
6.98799
21
-3.1152
0
LINE
8
BLACK
6
CONTINUOUS
10
6.98799
20
-3.1152
11
6.83563
21
-3.1152
0
LINE
8
BLACK
6
CONTINUOUS
10
6.83563
20
-3.1152
11
6.83563
21
-3.22123
0
LINE
8
BLACK
6
CONTINUOUS
10
6.83563
20
-3.22123
11
6.98799
21
-3.22223
0
LINE
8
BLACK
6
CONTINUOUS
10
6.98799
20
-3.22223
11
6.98804
21
-3.22222
0
LINE
8
BLACK
6
CONTINUOUS
10
6.98804
20
-3.22222
11
6.98809
21
-3.22223
0
LINE
8
BLACK
6
CONTINUOUS
10
6.98809
20
-3.22223
11
6.98809
21
-3.22223
0
LINE
8
BLACK
6
CONTINUOUS
10
6.98809
20
-3.22223
11
6.98814
21
-3.22223
0
LINE
8
BLACK
6
CONTINUOUS
10
6.98814
20
-3.22223
11
6.98823
21
-3.22224
0
LINE
8
BLACK
6
CONTINUOUS
10
6.98823
20
-3.22224
11
6.98824
21
-3.22224
0
LINE
8
BLACK
6
CONTINUOUS
10
6.98824
20
-3.22224
11
6.98824
21
-3.22224
0
LINE
8
BLACK
6
CONTINUOUS
10
6.98824
20
-3.22224
11
6.98833
21
-3.22227
0
LINE
8
BLACK
6
CONTINUOUS
10
6.98833
20
-3.22227
11
6.98842
21
-3.2223
0
LINE
8
BLACK
6
CONTINUOUS
10
6.98842
20
-3.2223
11
6.98842
21
-3.2223
0
LINE
8
BLACK
6
CONTINUOUS
10
6.98842
20
-3.2223
11
6.98842
21
-3.2223
0
LINE
8
BLACK
6
CONTINUOUS
10
6.98842
20
-3.2223
11
6.98851
21
-3.22235
0
LINE
8
BLACK
6
CONTINUOUS
10
6.98851
20
-3.22235
11
6.98859
21
-3.22239
0
LINE
8
BLACK
6
CONTINUOUS
10
6.98859
20
-3.22239
11
6.98859
21
-3.22239
0
LINE
8
BLACK
6
CONTINUOUS
10
6.98859
20
-3.22239
11
6.98859
21
-3.22239
0
LINE
8
BLACK
6
CONTINUOUS
10
6.98859
20
-3.22239
11
6.98867
21
-3.22246
0
LINE
8
BLACK
6
CONTINUOUS
10
6.98867
20
-3.22246
11
6.98874
21
-3.22251
0
LINE
8
BLACK
6
CONTINUOUS
10
6.98874
20
-3.22251
11
6.98874
21
-3.22252
0
LINE
8
BLACK
6
CONTINUOUS
10
6.98874
20
-3.22252
11
6.98874
21
-3.22252
0
LINE
8
BLACK
6
CONTINUOUS
10
6.98874
20
-3.22252
11
6.9888
21
-3.22259
0
LINE
8
BLACK
6
CONTINUOUS
10
6.9888
20
-3.22259
11
6.98886
21
-3.22266
0
LINE
8
BLACK
6
CONTINUOUS
10
6.98886
20
-3.22266
11
6.98886
21
-3.22267
0
LINE
8
BLACK
6
CONTINUOUS
10
6.98886
20
-3.22267
11
6.98887
21
-3.22267
0
LINE
8
BLACK
6
CONTINUOUS
10
6.98887
20
-3.22267
11
6.98891
21
-3.22275
0
LINE
8
BLACK
6
CONTINUOUS
10
6.98891
20
-3.22275
11
6.98895
21
-3.22283
0
LINE
8
BLACK
6
CONTINUOUS
10
6.98895
20
-3.22283
11
6.98895
21
-3.22284
0
LINE
8
BLACK
6
CONTINUOUS
10
6.98895
20
-3.22284
11
6.98896
21
-3.22284
0
LINE
8
BLACK
6
CONTINUOUS
10
6.98896
20
-3.22284
11
6.98898
21
-3.22293
0
LINE
8
BLACK
6
CONTINUOUS
10
6.98898
20
-3.22293
11
6.98901
21
-3.22302
0
LINE
8
BLACK
6
CONTINUOUS
10
6.98901
20
-3.22302
11
6.98901
21
-3.22302
0
LINE
8
BLACK
6
CONTINUOUS
10
6.98901
20
-3.22302
11
6.98901
21
-3.22303
0
LINE
8
BLACK
6
CONTINUOUS
10
6.98901
20
-3.22303
11
6.98902
21
-3.22312
0
LINE
8
BLACK
6
CONTINUOUS
10
6.98902
20
-3.22312
11
6.98902
21
-3.22316
0
LINE
8
BLACK
6
CONTINUOUS
10
6.98902
20
-3.22316
11
6.98902
21
-3.22317
0
LINE
8
BLACK
6
CONTINUOUS
10
6.98902
20
-3.22317
11
6.98903
21
-3.22322
0
LINE
8
BLACK
6
CONTINUOUS
10
6.98903
20
-3.22322
11
6.98902
21
-3.22326
0
LINE
8
BLACK
6
CONTINUOUS
10
6.98902
20
-3.22326
11
6.98902
21
-3.57716
0
LINE
8
BLACK
6
CONTINUOUS
10
6.98902
20
-3.57716
11
6.98903
21
-3.57721
0
LINE
8
BLACK
6
CONTINUOUS
10
6.98903
20
-3.57721
11
6.98902
21
-3.57726
0
LINE
8
BLACK
6
CONTINUOUS
10
6.98902
20
-3.57726
11
6.98901
21
-3.57741
0
LINE
8
BLACK
6
CONTINUOUS
10
6.98901
20
-3.57741
11
6.98895
21
-3.57759
0
LINE
8
BLACK
6
CONTINUOUS
10
6.98895
20
-3.57759
11
6.98886
21
-3.57776
0
LINE
8
BLACK
6
CONTINUOUS
10
6.98886
20
-3.57776
11
6.98874
21
-3.57791
0
LINE
8
BLACK
6
CONTINUOUS
10
6.98874
20
-3.57791
11
6.98859
21
-3.57803
0
LINE
8
BLACK
6
CONTINUOUS
10
6.98859
20
-3.57803
11
6.98842
21
-3.57813
0
LINE
8
BLACK
6
CONTINUOUS
10
6.98842
20
-3.57813
11
6.98823
21
-3.57818
0
LINE
8
BLACK
6
CONTINUOUS
10
6.98823
20
-3.57818
11
6.98804
21
-3.5782
0
LINE
8
BLACK
6
CONTINUOUS
10
6.98804
20
-3.5782
11
6.98799
21
-3.5782
0
LINE
8
BLACK
6
CONTINUOUS
10
6.98799
20
-3.5782
11
6.80115
21
-3.5782
0
LINE
8
BLACK
6
CONTINUOUS
10
6.80115
20
-3.5782
11
6.79601
21
-3.58334
0
LINE
8
BLACK
6
CONTINUOUS
10
6.79601
20
-3.58334
11
6.79597
21
-3.58338
0
LINE
8
BLACK
6
CONTINUOUS
10
6.79597
20
-3.58338
11
6.79583
21
-3.5835
0
LINE
8
BLACK
6
CONTINUOUS
10
6.79583
20
-3.5835
11
6.79565
21
-3.58359
0
LINE
8
BLACK
6
CONTINUOUS
10
6.79565
20
-3.58359
11
6.79547
21
-3.58365
0
LINE
8
BLACK
6
CONTINUOUS
10
6.79547
20
-3.58365
11
6.79532
21
-3.58366
0
LINE
8
BLACK
6
CONTINUOUS
10
6.79532
20
-3.58366
11
6.79532
21
-3.58366
0
LINE
8
BLACK
6
CONTINUOUS
10
6.79532
20
-3.58366
11
6.79528
21
-3.58367
0
LINE
8
BLACK
6
CONTINUOUS
10
6.79528
20
-3.58367
11
6.79523
21
-3.58366
0
LINE
8
BLACK
6
CONTINUOUS
10
6.79523
20
-3.58366
11
5.82682
21
-3.58366
0
LINE
8
BLACK
6
CONTINUOUS
10
5.82682
20
-3.58366
11
5.82677
21
-3.58367
0
LINE
8
BLACK
6
CONTINUOUS
10
5.82677
20
-3.58367
11
5.82658
21
-3.58365
0
LINE
8
BLACK
6
CONTINUOUS
10
5.82658
20
-3.58365
11
5.82639
21
-3.58359
0
LINE
8
BLACK
6
CONTINUOUS
10
5.82639
20
-3.58359
11
5.82639
21
-3.58359
0
LINE
8
BLACK
6
CONTINUOUS
10
5.82639
20
-3.58359
11
5.82622
21
-3.5835
0
LINE
8
BLACK
6
CONTINUOUS
10
5.82622
20
-3.5835
11
5.82607
21
-3.58338
0
LINE
8
BLACK
6
CONTINUOUS
10
5.82607
20
-3.58338
11
5.82604
21
-3.58334
0
LINE
8
BLACK
6
CONTINUOUS
10
5.82604
20
-3.58334
11
5.78674
21
-3.54404
0
LINE
8
BLACK
6
CONTINUOUS
10
5.78674
20
-3.54404
11
5.7867
21
-3.54401
0
LINE
8
BLACK
6
CONTINUOUS
10
5.7867
20
-3.54401
11
5.78658
21
-3.54386
0
LINE
8
BLACK
6
CONTINUOUS
10
5.78658
20
-3.54386
11
5.78649
21
-3.54369
0
LINE
8
BLACK
6
CONTINUOUS
10
5.78649
20
-3.54369
11
5.78649
21
-3.54369
0
LINE
8
BLACK
6
CONTINUOUS
10
5.78649
20
-3.54369
11
5.78643
21
-3.5435
0
LINE
8
BLACK
6
CONTINUOUS
10
5.78643
20
-3.5435
11
5.78641
21
-3.54331
0
LINE
8
BLACK
6
CONTINUOUS
10
5.78641
20
-3.54331
11
5.78642
21
-3.54326
0
LINE
8
BLACK
6
CONTINUOUS
10
5.78642
20
-3.54326
11
5.78642
21
-3.30749
0
LINE
8
BLACK
6
CONTINUOUS
10
5.78642
20
-3.30749
11
5.74762
21
-3.2687
0
LINE
8
BLACK
6
CONTINUOUS
10
5.74762
20
-3.2687
11
3.72446
21
-3.2687
0
LINE
8
BLACK
6
CONTINUOUS
10
3.72446
20
-3.2687
11
3.72441
21
-3.26871
0
LINE
8
BLACK
6
CONTINUOUS
10
3.72441
20
-3.26871
11
3.72422
21
-3.26869
0
LINE
8
BLACK
6
CONTINUOUS
10
3.72422
20
-3.26869
11
3.72403
21
-3.26863
0
LINE
8
BLACK
6
CONTINUOUS
10
3.72403
20
-3.26863
11
3.72386
21
-3.26854
0
LINE
8
BLACK
6
CONTINUOUS
10
3.72386
20
-3.26854
11
3.72371
21
-3.26842
0
LINE
8
BLACK
6
CONTINUOUS
10
3.72371
20
-3.26842
11
3.72368
21
-3.26838
0
LINE
8
BLACK
6
CONTINUOUS
10
3.72368
20
-3.26838
11
3.68438
21
-3.22908
0
LINE
8
BLACK
6
CONTINUOUS
10
3.68438
20
-3.22908
11
3.68434
21
-3.22905
0
LINE
8
BLACK
6
CONTINUOUS
10
3.68434
20
-3.22905
11
3.68422
21
-3.2289
0
LINE
8
BLACK
6
CONTINUOUS
10
3.68422
20
-3.2289
11
3.68413
21
-3.22872
0
LINE
8
BLACK
6
CONTINUOUS
10
3.68413
20
-3.22872
11
3.68407
21
-3.22854
0
LINE
8
BLACK
6
CONTINUOUS
10
3.68407
20
-3.22854
11
3.68405
21
-3.22835
0
LINE
8
BLACK
6
CONTINUOUS
10
3.68405
20
-3.22835
11
3.68406
21
-3.2283
0
LINE
8
BLACK
6
CONTINUOUS
10
3.68406
20
-3.2283
11
3.68406
21
-1.33863
0
LINE
8
BLACK
6
CONTINUOUS
10
3.68406
20
-1.33863
11
3.68405
21
-1.33858
0
LINE
8
BLACK
6
CONTINUOUS
10
3.68405
20
-1.33858
11
3.68407
21
-1.33839
0
LINE
8
BLACK
6
CONTINUOUS
10
3.68407
20
-1.33839
11
3.68407
21
-1.33839
0
LINE
8
BLACK
6
CONTINUOUS
10
3.68407
20
-1.33839
11
3.68413
21
-1.3382
0
LINE
8
BLACK
6
CONTINUOUS
10
3.68413
20
-1.3382
11
3.68422
21
-1.33803
0
LINE
8
BLACK
6
CONTINUOUS
10
3.68422
20
-1.33803
11
3.68434
21
-1.33788
0
LINE
8
BLACK
6
CONTINUOUS
10
3.68434
20
-1.33788
11
3.68438
21
-1.33785
0
LINE
8
BLACK
6
CONTINUOUS
10
3.68438
20
-1.33785
11
3.72368
21
-1.29855
0
LINE
8
BLACK
6
CONTINUOUS
10
3.72368
20
-1.29855
11
3.72371
21
-1.29851
0
LINE
8
BLACK
6
CONTINUOUS
10
3.72371
20
-1.29851
11
3.72386
21
-1.29839
0
LINE
8
BLACK
6
CONTINUOUS
10
3.72386
20
-1.29839
11
3.72403
21
-1.2983
0
LINE
8
BLACK
6
CONTINUOUS
10
3.72403
20
-1.2983
11
3.72422
21
-1.29824
0
LINE
8
BLACK
6
CONTINUOUS
10
3.72422
20
-1.29824
11
3.72441
21
-1.29822
0
LINE
8
BLACK
6
CONTINUOUS
10
3.72441
20
-1.29822
11
3.72446
21
-1.29823
0
LINE
8
BLACK
6
CONTINUOUS
10
3.72446
20
-1.29823
11
6.79523
21
-1.29823
0
LINE
8
BLACK
6
CONTINUOUS
10
6.79523
20
-1.29823
11
6.79528
21
-1.29822
0
LINE
8
BLACK
6
CONTINUOUS
10
6.79528
20
-1.29822
11
6.79532
21
-1.29823
0
LINE
8
BLACK
6
CONTINUOUS
10
3.72482
20
-1.3002
11
3.68602
21
-1.33899
0
LINE
8
BLACK
6
CONTINUOUS
10
3.68602
20
-1.33899
11
3.68602
21
-3.22794
0
LINE
8
BLACK
6
CONTINUOUS
10
3.68602
20
-3.22794
11
3.72482
21
-3.26673
0
LINE
8
BLACK
6
CONTINUOUS
10
3.72482
20
-3.26673
11
5.74798
21
-3.26673
0
LINE
8
BLACK
6
CONTINUOUS
10
5.74798
20
-3.26673
11
5.74803
21
-3.26673
0
LINE
8
BLACK
6
CONTINUOUS
10
5.74803
20
-3.26673
11
5.74808
21
-3.26673
0
LINE
8
BLACK
6
CONTINUOUS
10
5.74808
20
-3.26673
11
5.74808
21
-3.26673
0
LINE
8
BLACK
6
CONTINUOUS
10
5.74808
20
-3.26673
11
5.74822
21
-3.26675
0
LINE
8
BLACK
6
CONTINUOUS
10
5.74822
20
-3.26675
11
5.74841
21
-3.2668
0
LINE
8
BLACK
6
CONTINUOUS
10
5.74841
20
-3.2668
11
5.74858
21
-3.26689
0
LINE
8
BLACK
6
CONTINUOUS
10
5.74858
20
-3.26689
11
5.74873
21
-3.26702
0
LINE
8
BLACK
6
CONTINUOUS
10
5.74873
20
-3.26702
11
5.74876
21
-3.26705
0
LINE
8
BLACK
6
CONTINUOUS
10
5.74876
20
-3.26705
11
5.78806
21
-3.30636
0
LINE
8
BLACK
6
CONTINUOUS
10
5.78806
20
-3.30636
11
5.7881
21
-3.30639
0
LINE
8
BLACK
6
CONTINUOUS
10
5.7881
20
-3.30639
11
5.78822
21
-3.30654
0
LINE
8
BLACK
6
CONTINUOUS
10
5.78822
20
-3.30654
11
5.78832
21
-3.30671
0
LINE
8
BLACK
6
CONTINUOUS
10
5.78832
20
-3.30671
11
5.78837
21
-3.30689
0
LINE
8
BLACK
6
CONTINUOUS
10
5.78837
20
-3.30689
11
5.78839
21
-3.30709
0
LINE
8
BLACK
6
CONTINUOUS
10
5.78839
20
-3.30709
11
5.78839
21
-3.30713
0
LINE
8
BLACK
6
CONTINUOUS
10
5.78839
20
-3.30713
11
5.78839
21
-3.5429
0
LINE
8
BLACK
6
CONTINUOUS
10
5.78839
20
-3.5429
11
5.82718
21
-3.58169
0
LINE
8
BLACK
6
CONTINUOUS
10
5.82718
20
-3.58169
11
6.79487
21
-3.58169
0
LINE
8
BLACK
6
CONTINUOUS
10
6.79487
20
-3.58169
11
6.83366
21
-3.5429
0
LINE
8
BLACK
6
CONTINUOUS
10
6.83366
20
-3.5429
11
6.83366
21
-2.3012
0
LINE
8
BLACK
6
CONTINUOUS
10
6.83366
20
-2.3012
11
6.55009
21
-2.3012
0
LINE
8
BLACK
6
CONTINUOUS
10
6.55009
20
-2.3012
11
6.55004
21
-2.3012
0
LINE
8
BLACK
6
CONTINUOUS
10
6.55004
20
-2.3012
11
6.54985
21
-2.30118
0
LINE
8
BLACK
6
CONTINUOUS
10
6.54985
20
-2.30118
11
6.54966
21
-2.30113
0
LINE
8
BLACK
6
CONTINUOUS
10
6.54966
20
-2.30113
11
6.54949
21
-2.30103
0
LINE
8
BLACK
6
CONTINUOUS
10
6.54949
20
-2.30103
11
6.54934
21
-2.30091
0
LINE
8
BLACK
6
CONTINUOUS
10
6.54934
20
-2.30091
11
6.54922
21
-2.30076
0
LINE
8
BLACK
6
CONTINUOUS
10
6.54922
20
-2.30076
11
6.54913
21
-2.30059
0
LINE
8
BLACK
6
CONTINUOUS
10
6.54913
20
-2.30059
11
6.54907
21
-2.30041
0
LINE
8
BLACK
6
CONTINUOUS
10
6.54907
20
-2.30041
11
6.54905
21
-2.30021
0
LINE
8
BLACK
6
CONTINUOUS
10
6.54905
20
-2.30021
11
6.54906
21
-2.30016
0
LINE
8
BLACK
6
CONTINUOUS
10
6.54906
20
-2.30016
11
6.54906
21
-2.00026
0
LINE
8
BLACK
6
CONTINUOUS
10
6.54906
20
-2.00026
11
6.54905
21
-2.00021
0
LINE
8
BLACK
6
CONTINUOUS
10
6.54905
20
-2.00021
11
6.54907
21
-2.00002
0
LINE
8
BLACK
6
CONTINUOUS
10
6.54907
20
-2.00002
11
6.54913
21
-1.99983
0
LINE
8
BLACK
6
CONTINUOUS
10
6.54913
20
-1.99983
11
6.54922
21
-1.99966
0
LINE
8
BLACK
6
CONTINUOUS
10
6.54922
20
-1.99966
11
6.54934
21
-1.99951
0
LINE
8
BLACK
6
CONTINUOUS
10
6.54934
20
-1.99951
11
6.54949
21
-1.99939
0
LINE
8
BLACK
6
CONTINUOUS
10
6.54949
20
-1.99939
11
6.54966
21
-1.9993
0
LINE
8
BLACK
6
CONTINUOUS
10
6.54966
20
-1.9993
11
6.54985
21
-1.99924
0
LINE
8
BLACK
6
CONTINUOUS
10
6.54985
20
-1.99924
11
6.54999
21
-1.99923
0
LINE
8
BLACK
6
CONTINUOUS
10
6.54999
20
-1.99923
11
6.54999
21
-1.99923
0
LINE
8
BLACK
6
CONTINUOUS
10
6.54999
20
-1.99923
11
6.55004
21
-1.99922
0
LINE
8
BLACK
6
CONTINUOUS
10
6.55004
20
-1.99922
11
6.55009
21
-1.99923
0
LINE
8
BLACK
6
CONTINUOUS
10
6.55009
20
-1.99923
11
6.83366
21
-1.99923
0
LINE
8
BLACK
6
CONTINUOUS
10
6.83366
20
-1.99923
11
6.83366
21
-1.33899
0
LINE
8
BLACK
6
CONTINUOUS
10
6.83366
20
-1.33899
11
6.79487
21
-1.3002
0
LINE
8
BLACK
6
CONTINUOUS
10
6.79487
20
-1.3002
11
3.72482
21
-1.3002
0
LINE
8
BLACK
6
CONTINUOUS
10
6.83563
20
-3.54326
11
6.83563
21
-3.54331
0
LINE
8
BLACK
6
CONTINUOUS
10
6.83563
20
-3.54331
11
6.83562
21
-3.5435
0
LINE
8
BLACK
6
CONTINUOUS
10
6.83562
20
-3.5435
11
6.83556
21
-3.54369
0
LINE
8
BLACK
6
CONTINUOUS
10
6.83556
20
-3.54369
11
6.83556
21
-3.54369
0
LINE
8
BLACK
6
CONTINUOUS
10
6.83556
20
-3.54369
11
6.83547
21
-3.54386
0
LINE
8
BLACK
6
CONTINUOUS
10
6.83547
20
-3.54386
11
6.83535
21
-3.54401
0
LINE
8
BLACK
6
CONTINUOUS
10
6.83535
20
-3.54401
11
6.83531
21
-3.54404
0
LINE
8
BLACK
6
CONTINUOUS
10
6.83531
20
-3.54404
11
6.80312
21
-3.57623
0
LINE
8
BLACK
6
CONTINUOUS
10
6.80312
20
-3.57623
11
6.98706
21
-3.57623
0
LINE
8
BLACK
6
CONTINUOUS
10
6.98706
20
-3.57623
11
6.98706
21
-3.22419
0
LINE
8
BLACK
6
CONTINUOUS
10
6.98706
20
-3.22419
11
6.83563
21
-3.2232
0
LINE
8
BLACK
6
CONTINUOUS
10
6.83563
20
-3.2232
11
6.83563
21
-3.54326
0
LINE
8
BLACK
6
CONTINUOUS
10
6.83563
20
-2.8792
11
6.83563
21
-3.11323
0
LINE
8
BLACK
6
CONTINUOUS
10
6.83563
20
-3.11323
11
6.98706
21
-3.11323
0
LINE
8
BLACK
6
CONTINUOUS
10
6.98706
20
-3.11323
11
6.98706
21
-2.8792
0
LINE
8
BLACK
6
CONTINUOUS
10
6.98706
20
-2.8792
11
6.83563
21
-2.8792
0
LINE
8
BLACK
6
CONTINUOUS
10
6.55102
20
-2.0012
11
6.55102
21
-2.29923
0
LINE
8
BLACK
6
CONTINUOUS
10
6.55102
20
-2.29923
11
6.83366
21
-2.29923
0
LINE
8
BLACK
6
CONTINUOUS
10
6.83366
20
-2.29923
11
6.83366
21
-2.0012
0
LINE
8
BLACK
6
CONTINUOUS
10
6.83366
20
-2.0012
11
6.55102
21
-2.0012
0
LINE
8
BLACK
6
CONTINUOUS
10
6.83563
20
-2.0012
11
6.83563
21
-2.29923
0
LINE
8
BLACK
6
CONTINUOUS
10
6.83563
20
-2.29923
11
6.89906
21
-2.29923
0
LINE
8
BLACK
6
CONTINUOUS
10
6.89906
20
-2.29923
11
6.89906
21
-2.0012
0
LINE
8
BLACK
6
CONTINUOUS
10
6.89906
20
-2.0012
11
6.83563
21
-2.0012
0
LINE
8
BLACK
6
CONTINUOUS
10
6.6863
20
-2.65512
11
6.6902
21
-2.64571
0
LINE
8
BLACK
6
CONTINUOUS
10
6.6902
20
-2.64571
11
6.69586
21
-2.63724
0
LINE
8
BLACK
6
CONTINUOUS
10
6.69586
20
-2.63724
11
6.70306
21
-2.63003
0
LINE
8
BLACK
6
CONTINUOUS
10
6.70306
20
-2.63003
11
6.71154
21
-2.62437
0
LINE
8
BLACK
6
CONTINUOUS
10
6.71154
20
-2.62437
11
6.72095
21
-2.62047
0
LINE
8
BLACK
6
CONTINUOUS
10
6.72095
20
-2.62047
11
6.73094
21
-2.61848
0
LINE
8
BLACK
6
CONTINUOUS
10
6.73094
20
-2.61848
11
6.74113
21
-2.61848
0
LINE
8
BLACK
6
CONTINUOUS
10
6.74113
20
-2.61848
11
6.75113
21
-2.62047
0
LINE
8
BLACK
6
CONTINUOUS
10
6.75113
20
-2.62047
11
6.76054
21
-2.62437
0
LINE
8
BLACK
6
CONTINUOUS
10
6.76054
20
-2.62437
11
6.76902
21
-2.63003
0
LINE
8
BLACK
6
CONTINUOUS
10
6.76902
20
-2.63003
11
6.77622
21
-2.63724
0
LINE
8
BLACK
6
CONTINUOUS
10
6.77622
20
-2.63724
11
6.78188
21
-2.64571
0
LINE
8
BLACK
6
CONTINUOUS
10
6.78188
20
-2.64571
11
6.78578
21
-2.65512
0
LINE
8
BLACK
6
CONTINUOUS
10
6.78578
20
-2.65512
11
6.78777
21
-2.66512
0
LINE
8
BLACK
6
CONTINUOUS
10
6.78777
20
-2.66512
11
6.78777
21
-2.67531
0
LINE
8
BLACK
6
CONTINUOUS
10
6.78777
20
-2.67531
11
6.78578
21
-2.6853
0
LINE
8
BLACK
6
CONTINUOUS
10
6.78578
20
-2.6853
11
6.78188
21
-2.69472
0
LINE
8
BLACK
6
CONTINUOUS
10
6.78188
20
-2.69472
11
6.77622
21
-2.70319
0
LINE
8
BLACK
6
CONTINUOUS
10
6.77622
20
-2.70319
11
6.76902
21
-2.71039
0
LINE
8
BLACK
6
CONTINUOUS
10
6.76902
20
-2.71039
11
6.76054
21
-2.71606
0
LINE
8
BLACK
6
CONTINUOUS
10
6.76054
20
-2.71606
11
6.75113
21
-2.71996
0
LINE
8
BLACK
6
CONTINUOUS
10
6.75113
20
-2.71996
11
6.74113
21
-2.72194
0
LINE
8
BLACK
6
CONTINUOUS
10
6.74113
20
-2.72194
11
6.73094
21
-2.72194
0
LINE
8
BLACK
6
CONTINUOUS
10
6.73094
20
-2.72194
11
6.72095
21
-2.71996
0
LINE
8
BLACK
6
CONTINUOUS
10
6.72095
20
-2.71996
11
6.71154
21
-2.71606
0
LINE
8
BLACK
6
CONTINUOUS
10
6.71154
20
-2.71606
11
6.70306
21
-2.71039
0
LINE
8
BLACK
6
CONTINUOUS
10
6.70306
20
-2.71039
11
6.69586
21
-2.70319
0
LINE
8
BLACK
6
CONTINUOUS
10
6.69586
20
-2.70319
11
6.6902
21
-2.69472
0
LINE
8
BLACK
6
CONTINUOUS
10
6.6902
20
-2.69472
11
6.6863
21
-2.6853
0
LINE
8
BLACK
6
CONTINUOUS
10
6.6863
20
-2.6853
11
6.68431
21
-2.67531
0
LINE
8
BLACK
6
CONTINUOUS
10
6.68431
20
-2.67531
11
6.68431
21
-2.66512
0
LINE
8
BLACK
6
CONTINUOUS
10
6.68431
20
-2.66512
11
6.6863
21
-2.65512
0
LINE
8
BLACK
6
CONTINUOUS
10
6.68893
20
-2.6845
11
6.69263
21
-2.69342
0
LINE
8
BLACK
6
CONTINUOUS
10
6.69263
20
-2.69342
11
6.69799
21
-2.70144
0
LINE
8
BLACK
6
CONTINUOUS
10
6.69799
20
-2.70144
11
6.70481
21
-2.70826
0
LINE
8
BLACK
6
CONTINUOUS
10
6.70481
20
-2.70826
11
6.71283
21
-2.71363
0
LINE
8
BLACK
6
CONTINUOUS
10
6.71283
20
-2.71363
11
6.72175
21
-2.71732
0
LINE
8
BLACK
6
CONTINUOUS
10
6.72175
20
-2.71732
11
6.73121
21
-2.7192
0
LINE
8
BLACK
6
CONTINUOUS
10
6.73121
20
-2.7192
11
6.74086
21
-2.7192
0
LINE
8
BLACK
6
CONTINUOUS
10
6.74086
20
-2.7192
11
6.75033
21
-2.71732
0
LINE
8
BLACK
6
CONTINUOUS
10
6.75033
20
-2.71732
11
6.75924
21
-2.71363
0
LINE
8
BLACK
6
CONTINUOUS
10
6.75924
20
-2.71363
11
6.76727
21
-2.70826
0
LINE
8
BLACK
6
CONTINUOUS
10
6.76727
20
-2.70826
11
6.77409
21
-2.70144
0
LINE
8
BLACK
6
CONTINUOUS
10
6.77409
20
-2.70144
11
6.77945
21
-2.69342
0
LINE
8
BLACK
6
CONTINUOUS
10
6.77945
20
-2.69342
11
6.78315
21
-2.6845
0
LINE
8
BLACK
6
CONTINUOUS
10
6.78315
20
-2.6845
11
6.78503
21
-2.67504
0
LINE
8
BLACK
6
CONTINUOUS
10
6.78503
20
-2.67504
11
6.78503
21
-2.66539
0
LINE
8
BLACK
6
CONTINUOUS
10
6.78503
20
-2.66539
11
6.78315
21
-2.65592
0
LINE
8
BLACK
6
CONTINUOUS
10
6.78315
20
-2.65592
11
6.77945
21
-2.64701
0
LINE
8
BLACK
6
CONTINUOUS
10
6.77945
20
-2.64701
11
6.77409
21
-2.63898
0
LINE
8
BLACK
6
CONTINUOUS
10
6.77409
20
-2.63898
11
6.76727
21
-2.63216
0
LINE
8
BLACK
6
CONTINUOUS
10
6.76727
20
-2.63216
11
6.75924
21
-2.6268
0
LINE
8
BLACK
6
CONTINUOUS
10
6.75924
20
-2.6268
11
6.75033
21
-2.62311
0
LINE
8
BLACK
6
CONTINUOUS
10
6.75033
20
-2.62311
11
6.74086
21
-2.62122
0
LINE
8
BLACK
6
CONTINUOUS
10
6.74086
20
-2.62122
11
6.73121
21
-2.62122
0
LINE
8
BLACK
6
CONTINUOUS
10
6.73121
20
-2.62122
11
6.72175
21
-2.62311
0
LINE
8
BLACK
6
CONTINUOUS
10
6.72175
20
-2.62311
11
6.71283
21
-2.6268
0
LINE
8
BLACK
6
CONTINUOUS
10
6.71283
20
-2.6268
11
6.70481
21
-2.63216
0
LINE
8
BLACK
6
CONTINUOUS
10
6.70481
20
-2.63216
11
6.69799
21
-2.63898
0
LINE
8
BLACK
6
CONTINUOUS
10
6.69799
20
-2.63898
11
6.69263
21
-2.64701
0
LINE
8
BLACK
6
CONTINUOUS
10
6.69263
20
-2.64701
11
6.68893
21
-2.65592
0
LINE
8
BLACK
6
CONTINUOUS
10
6.68893
20
-2.65592
11
6.68705
21
-2.66539
0
LINE
8
BLACK
6
CONTINUOUS
10
6.68705
20
-2.66539
11
6.68705
21
-2.67504
0
LINE
8
BLACK
6
CONTINUOUS
10
6.68705
20
-2.67504
11
6.68893
21
-2.6845
0
LINE
8
BLACK
6
CONTINUOUS
10
3.73253
20
-2.65489
11
3.73649
21
-2.64533
0
LINE
8
BLACK
6
CONTINUOUS
10
3.73649
20
-2.64533
11
3.74224
21
-2.63673
0
LINE
8
BLACK
6
CONTINUOUS
10
3.74224
20
-2.63673
11
3.74956
21
-2.62941
0
LINE
8
BLACK
6
CONTINUOUS
10
3.74956
20
-2.62941
11
3.75816
21
-2.62366
0
LINE
8
BLACK
6
CONTINUOUS
10
3.75816
20
-2.62366
11
3.76772
21
-2.6197
0
LINE
8
BLACK
6
CONTINUOUS
10
3.76772
20
-2.6197
11
3.77787
21
-2.61769
0
LINE
8
BLACK
6
CONTINUOUS
10
3.77787
20
-2.61769
11
3.78821
21
-2.61769
0
LINE
8
BLACK
6
CONTINUOUS
10
3.78821
20
-2.61769
11
3.79836
21
-2.6197
0
LINE
8
BLACK
6
CONTINUOUS
10
3.79836
20
-2.6197
11
3.80792
21
-2.62366
0
LINE
8
BLACK
6
CONTINUOUS
10
3.80792
20
-2.62366
11
3.81652
21
-2.62941
0
LINE
8
BLACK
6
CONTINUOUS
10
3.81652
20
-2.62941
11
3.82384
21
-2.63673
0
LINE
8
BLACK
6
CONTINUOUS
10
3.82384
20
-2.63673
11
3.82959
21
-2.64533
0
LINE
8
BLACK
6
CONTINUOUS
10
3.82959
20
-2.64533
11
3.83355
21
-2.65489
0
LINE
8
BLACK
6
CONTINUOUS
10
3.83355
20
-2.65489
11
3.83557
21
-2.66504
0
LINE
8
BLACK
6
CONTINUOUS
10
3.83557
20
-2.66504
11
3.83557
21
-2.67539
0
LINE
8
BLACK
6
CONTINUOUS
10
3.83557
20
-2.67539
11
3.83355
21
-2.68553
0
LINE
8
BLACK
6
CONTINUOUS
10
3.83355
20
-2.68553
11
3.82959
21
-2.69509
0
LINE
8
BLACK
6
CONTINUOUS
10
3.82959
20
-2.69509
11
3.82384
21
-2.7037
0
LINE
8
BLACK
6
CONTINUOUS
10
3.82384
20
-2.7037
11
3.81652
21
-2.71101
0
LINE
8
BLACK
6
CONTINUOUS
10
3.81652
20
-2.71101
11
3.80792
21
-2.71676
0
LINE
8
BLACK
6
CONTINUOUS
10
3.80792
20
-2.71676
11
3.79836
21
-2.72072
0
LINE
8
BLACK
6
CONTINUOUS
10
3.79836
20
-2.72072
11
3.78821
21
-2.72274
0
LINE
8
BLACK
6
CONTINUOUS
10
3.78821
20
-2.72274
11
3.77787
21
-2.72274
0
LINE
8
BLACK
6
CONTINUOUS
10
3.77787
20
-2.72274
11
3.76772
21
-2.72072
0
LINE
8
BLACK
6
CONTINUOUS
10
3.76772
20
-2.72072
11
3.75816
21
-2.71676
0
LINE
8
BLACK
6
CONTINUOUS
10
3.75816
20
-2.71676
11
3.74956
21
-2.71101
0
LINE
8
BLACK
6
CONTINUOUS
10
3.74956
20
-2.71101
11
3.74224
21
-2.7037
0
LINE
8
BLACK
6
CONTINUOUS
10
3.74224
20
-2.7037
11
3.73649
21
-2.69509
0
LINE
8
BLACK
6
CONTINUOUS
10
3.73649
20
-2.69509
11
3.73253
21
-2.68553
0
LINE
8
BLACK
6
CONTINUOUS
10
3.73253
20
-2.68553
11
3.73051
21
-2.67539
0
LINE
8
BLACK
6
CONTINUOUS
10
3.73051
20
-2.67539
11
3.73051
21
-2.66504
0
LINE
8
BLACK
6
CONTINUOUS
10
3.73051
20
-2.66504
11
3.73253
21
-2.65489
0
LINE
8
BLACK
6
CONTINUOUS
10
3.73517
20
-2.68473
11
3.73892
21
-2.69379
0
LINE
8
BLACK
6
CONTINUOUS
10
3.73892
20
-2.69379
11
3.74437
21
-2.70195
0
LINE
8
BLACK
6
CONTINUOUS
10
3.74437
20
-2.70195
11
3.7513
21
-2.70888
0
LINE
8
BLACK
6
CONTINUOUS
10
3.7513
20
-2.70888
11
3.75946
21
-2.71433
0
LINE
8
BLACK
6
CONTINUOUS
10
3.75946
20
-2.71433
11
3.76852
21
-2.71808
0
LINE
8
BLACK
6
CONTINUOUS
10
3.76852
20
-2.71808
11
3.77814
21
-2.72
0
LINE
8
BLACK
6
CONTINUOUS
10
3.77814
20
-2.72
11
3.78794
21
-2.72
0
LINE
8
BLACK
6
CONTINUOUS
10
3.78794
20
-2.72
11
3.79756
21
-2.71808
0
LINE
8
BLACK
6
CONTINUOUS
10
3.79756
20
-2.71808
11
3.80662
21
-2.71433
0
LINE
8
BLACK
6
CONTINUOUS
10
3.80662
20
-2.71433
11
3.81478
21
-2.70888
0
LINE
8
BLACK
6
CONTINUOUS
10
3.81478
20
-2.70888
11
3.82171
21
-2.70195
0
LINE
8
BLACK
6
CONTINUOUS
10
3.82171
20
-2.70195
11
3.82716
21
-2.69379
0
LINE
8
BLACK
6
CONTINUOUS
10
3.82716
20
-2.69379
11
3.83091
21
-2.68473
0
LINE
8
BLACK
6
CONTINUOUS
10
3.83091
20
-2.68473
11
3.83282
21
-2.67512
0
LINE
8
BLACK
6
CONTINUOUS
10
3.83282
20
-2.67512
11
3.83282
21
-2.66531
0
LINE
8
BLACK
6
CONTINUOUS
10
3.83282
20
-2.66531
11
3.83091
21
-2.65569
0
LINE
8
BLACK
6
CONTINUOUS
10
3.83091
20
-2.65569
11
3.82716
21
-2.64663
0
LINE
8
BLACK
6
CONTINUOUS
10
3.82716
20
-2.64663
11
3.82171
21
-2.63848
0
LINE
8
BLACK
6
CONTINUOUS
10
3.82171
20
-2.63848
11
3.81478
21
-2.63154
0
LINE
8
BLACK
6
CONTINUOUS
10
3.81478
20
-2.63154
11
3.80662
21
-2.62609
0
LINE
8
BLACK
6
CONTINUOUS
10
3.80662
20
-2.62609
11
3.79756
21
-2.62234
0
LINE
8
BLACK
6
CONTINUOUS
10
3.79756
20
-2.62234
11
3.78794
21
-2.62043
0
LINE
8
BLACK
6
CONTINUOUS
10
3.78794
20
-2.62043
11
3.77814
21
-2.62043
0
LINE
8
BLACK
6
CONTINUOUS
10
3.77814
20
-2.62043
11
3.76852
21
-2.62234
0
LINE
8
BLACK
6
CONTINUOUS
10
3.76852
20
-2.62234
11
3.75946
21
-2.62609
0
LINE
8
BLACK
6
CONTINUOUS
10
3.75946
20
-2.62609
11
3.7513
21
-2.63154
0
LINE
8
BLACK
6
CONTINUOUS
10
3.7513
20
-2.63154
11
3.74437
21
-2.63848
0
LINE
8
BLACK
6
CONTINUOUS
10
3.74437
20
-2.63848
11
3.73892
21
-2.64663
0
LINE
8
BLACK
6
CONTINUOUS
10
3.73892
20
-2.64663
11
3.73517
21
-2.65569
0
LINE
8
BLACK
6
CONTINUOUS
10
3.73517
20
-2.65569
11
3.73325
21
-2.66531
0
LINE
8
BLACK
6
CONTINUOUS
10
3.73325
20
-2.66531
11
3.73325
21
-2.67512
0
LINE
8
BLACK
6
CONTINUOUS
10
3.73325
20
-2.67512
11
3.73517
21
-2.68473
0
LINE
8
BLACK
6
CONTINUOUS
10
3.73322
20
-1.4351
11
3.73713
21
-1.42567
0
LINE
8
BLACK
6
CONTINUOUS
10
3.73713
20
-1.42567
11
3.7428
21
-1.41719
0
LINE
8
BLACK
6
CONTINUOUS
10
3.7428
20
-1.41719
11
3.75001
21
-1.40997
0
LINE
8
BLACK
6
CONTINUOUS
10
3.75001
20
-1.40997
11
3.7585
21
-1.4043
0
LINE
8
BLACK
6
CONTINUOUS
10
3.7585
20
-1.4043
11
3.76793
21
-1.40039
0
LINE
8
BLACK
6
CONTINUOUS
10
3.76793
20
-1.40039
11
3.77794
21
-1.3984
0
LINE
8
BLACK
6
CONTINUOUS
10
3.77794
20
-1.3984
11
3.78814
21
-1.3984
0
LINE
8
BLACK
6
CONTINUOUS
10
3.78814
20
-1.3984
11
3.79815
21
-1.40039
0
LINE
8
BLACK
6
CONTINUOUS
10
3.79815
20
-1.40039
11
3.80758
21
-1.4043
0
LINE
8
BLACK
6
CONTINUOUS
10
3.80758
20
-1.4043
11
3.81607
21
-1.40997
0
LINE
8
BLACK
6
CONTINUOUS
10
3.81607
20
-1.40997
11
3.82328
21
-1.41719
0
LINE
8
BLACK
6
CONTINUOUS
10
3.82328
20
-1.41719
11
3.82895
21
-1.42567
0
LINE
8
BLACK
6
CONTINUOUS
10
3.82895
20
-1.42567
11
3.83286
21
-1.4351
0
LINE
8
BLACK
6
CONTINUOUS
10
3.83286
20
-1.4351
11
3.83485
21
-1.44511
0
LINE
8
BLACK
6
CONTINUOUS
10
3.83485
20
-1.44511
11
3.83485
21
-1.45532
0
LINE
8
BLACK
6
CONTINUOUS
10
3.83485
20
-1.45532
11
3.83286
21
-1.46533
0
LINE
8
BLACK
6
CONTINUOUS
10
3.83286
20
-1.46533
11
3.82895
21
-1.47475
0
LINE
8
BLACK
6
CONTINUOUS
10
3.82895
20
-1.47475
11
3.82328
21
-1.48324
0
LINE
8
BLACK
6
CONTINUOUS
10
3.82328
20
-1.48324
11
3.81607
21
-1.49046
0
LINE
8
BLACK
6
CONTINUOUS
10
3.81607
20
-1.49046
11
3.80758
21
-1.49613
0
LINE
8
BLACK
6
CONTINUOUS
10
3.80758
20
-1.49613
11
3.79815
21
-1.50003
0
LINE
8
BLACK
6
CONTINUOUS
10
3.79815
20
-1.50003
11
3.78814
21
-1.50202
0
LINE
8
BLACK
6
CONTINUOUS
10
3.78814
20
-1.50202
11
3.77794
21
-1.50202
0
LINE
8
BLACK
6
CONTINUOUS
10
3.77794
20
-1.50202
11
3.76793
21
-1.50003
0
LINE
8
BLACK
6
CONTINUOUS
10
3.76793
20
-1.50003
11
3.7585
21
-1.49613
0
LINE
8
BLACK
6
CONTINUOUS
10
3.7585
20
-1.49613
11
3.75001
21
-1.49046
0
LINE
8
BLACK
6
CONTINUOUS
10
3.75001
20
-1.49046
11
3.7428
21
-1.48324
0
LINE
8
BLACK
6
CONTINUOUS
10
3.7428
20
-1.48324
11
3.73713
21
-1.47475
0
LINE
8
BLACK
6
CONTINUOUS
10
3.73713
20
-1.47475
11
3.73322
21
-1.46533
0
LINE
8
BLACK
6
CONTINUOUS
10
3.73322
20
-1.46533
11
3.73123
21
-1.45532
0
LINE
8
BLACK
6
CONTINUOUS
10
3.73123
20
-1.45532
11
3.73123
21
-1.44511
0
LINE
8
BLACK
6
CONTINUOUS
10
3.73123
20
-1.44511
11
3.73322
21
-1.4351
0
LINE
8
BLACK
6
CONTINUOUS
10
3.73586
20
-1.46453
11
3.73956
21
-1.47345
0
LINE
8
BLACK
6
CONTINUOUS
10
3.73956
20
-1.47345
11
3.74493
21
-1.48149
0
LINE
8
BLACK
6
CONTINUOUS
10
3.74493
20
-1.48149
11
3.75176
21
-1.48833
0
LINE
8
BLACK
6
CONTINUOUS
10
3.75176
20
-1.48833
11
3.7598
21
-1.4937
0
LINE
8
BLACK
6
CONTINUOUS
10
3.7598
20
-1.4937
11
3.76873
21
-1.49739
0
LINE
8
BLACK
6
CONTINUOUS
10
3.76873
20
-1.49739
11
3.77821
21
-1.49928
0
LINE
8
BLACK
6
CONTINUOUS
10
3.77821
20
-1.49928
11
3.78787
21
-1.49928
0
LINE
8
BLACK
6
CONTINUOUS
10
3.78787
20
-1.49928
11
3.79735
21
-1.49739
0
LINE
8
BLACK
6
CONTINUOUS
10
3.79735
20
-1.49739
11
3.80628
21
-1.4937
0
LINE
8
BLACK
6
CONTINUOUS
10
3.80628
20
-1.4937
11
3.81432
21
-1.48833
0
LINE
8
BLACK
6
CONTINUOUS
10
3.81432
20
-1.48833
11
3.82115
21
-1.48149
0
LINE
8
BLACK
6
CONTINUOUS
10
3.82115
20
-1.48149
11
3.82652
21
-1.47345
0
LINE
8
BLACK
6
CONTINUOUS
10
3.82652
20
-1.47345
11
3.83022
21
-1.46453
0
LINE
8
BLACK
6
CONTINUOUS
10
3.83022
20
-1.46453
11
3.83211
21
-1.45505
0
LINE
8
BLACK
6
CONTINUOUS
10
3.83211
20
-1.45505
11
3.83211
21
-1.44538
0
LINE
8
BLACK
6
CONTINUOUS
10
3.83211
20
-1.44538
11
3.83022
21
-1.4359
0
LINE
8
BLACK
6
CONTINUOUS
10
3.83022
20
-1.4359
11
3.82652
21
-1.42697
0
LINE
8
BLACK
6
CONTINUOUS
10
3.82652
20
-1.42697
11
3.82115
21
-1.41893
0
LINE
8
BLACK
6
CONTINUOUS
10
3.82115
20
-1.41893
11
3.81432
21
-1.4121
0
LINE
8
BLACK
6
CONTINUOUS
10
3.81432
20
-1.4121
11
3.80628
21
-1.40673
0
LINE
8
BLACK
6
CONTINUOUS
10
3.80628
20
-1.40673
11
3.79735
21
-1.40303
0
LINE
8
BLACK
6
CONTINUOUS
10
3.79735
20
-1.40303
11
3.78787
21
-1.40115
0
LINE
8
BLACK
6
CONTINUOUS
10
3.78787
20
-1.40115
11
3.77821
21
-1.40115
0
LINE
8
BLACK
6
CONTINUOUS
10
3.77821
20
-1.40115
11
3.76873
21
-1.40303
0
LINE
8
BLACK
6
CONTINUOUS
10
3.76873
20
-1.40303
11
3.7598
21
-1.40673
0
LINE
8
BLACK
6
CONTINUOUS
10
3.7598
20
-1.40673
11
3.75176
21
-1.4121
0
LINE
8
BLACK
6
CONTINUOUS
10
3.75176
20
-1.4121
11
3.74493
21
-1.41893
0
LINE
8
BLACK
6
CONTINUOUS
10
3.74493
20
-1.41893
11
3.73956
21
-1.42697
0
LINE
8
BLACK
6
CONTINUOUS
10
3.73956
20
-1.42697
11
3.73586
21
-1.4359
0
LINE
8
BLACK
6
CONTINUOUS
10
3.73586
20
-1.4359
11
3.73397
21
-1.44538
0
LINE
8
BLACK
6
CONTINUOUS
10
3.73397
20
-1.44538
11
3.73397
21
-1.45505
0
LINE
8
BLACK
6
CONTINUOUS
10
3.73397
20
-1.45505
11
3.73586
21
-1.46453
0
LINE
8
BLACK
6
CONTINUOUS
10
6.68508
20
-1.43476
11
6.68908
21
-1.42511
0
LINE
8
BLACK
6
CONTINUOUS
10
6.68908
20
-1.42511
11
6.69488
21
-1.41643
0
LINE
8
BLACK
6
CONTINUOUS
10
6.69488
20
-1.41643
11
6.70226
21
-1.40905
0
LINE
8
BLACK
6
CONTINUOUS
10
6.70226
20
-1.40905
11
6.71094
21
-1.40325
0
LINE
8
BLACK
6
CONTINUOUS
10
6.71094
20
-1.40325
11
6.72058
21
-1.39926
0
LINE
8
BLACK
6
CONTINUOUS
10
6.72058
20
-1.39926
11
6.73082
21
-1.39722
0
LINE
8
BLACK
6
CONTINUOUS
10
6.73082
20
-1.39722
11
6.74126
21
-1.39722
0
LINE
8
BLACK
6
CONTINUOUS
10
6.74126
20
-1.39722
11
6.7515
21
-1.39926
0
LINE
8
BLACK
6
CONTINUOUS
10
6.7515
20
-1.39926
11
6.76114
21
-1.40325
0
LINE
8
BLACK
6
CONTINUOUS
10
6.76114
20
-1.40325
11
6.76982
21
-1.40905
0
LINE
8
BLACK
6
CONTINUOUS
10
6.76982
20
-1.40905
11
6.7772
21
-1.41643
0
LINE
8
BLACK
6
CONTINUOUS
10
6.7772
20
-1.41643
11
6.783
21
-1.42511
0
LINE
8
BLACK
6
CONTINUOUS
10
6.783
20
-1.42511
11
6.787
21
-1.43476
0
LINE
8
BLACK
6
CONTINUOUS
10
6.787
20
-1.43476
11
6.78903
21
-1.44499
0
LINE
8
BLACK
6
CONTINUOUS
10
6.78903
20
-1.44499
11
6.78903
21
-1.45543
0
LINE
8
BLACK
6
CONTINUOUS
10
6.78903
20
-1.45543
11
6.787
21
-1.46567
0
LINE
8
BLACK
6
CONTINUOUS
10
6.787
20
-1.46567
11
6.783
21
-1.47531
0
LINE
8
BLACK
6
CONTINUOUS
10
6.783
20
-1.47531
11
6.7772
21
-1.48399
0
LINE
8
BLACK
6
CONTINUOUS
10
6.7772
20
-1.48399
11
6.76982
21
-1.49138
0
LINE
8
BLACK
6
CONTINUOUS
10
6.76982
20
-1.49138
11
6.76114
21
-1.49717
0
LINE
8
BLACK
6
CONTINUOUS
10
6.76114
20
-1.49717
11
6.7515
21
-1.50117
0
LINE
8
BLACK
6
CONTINUOUS
10
6.7515
20
-1.50117
11
6.74126
21
-1.50321
0
LINE
8
BLACK
6
CONTINUOUS
10
6.74126
20
-1.50321
11
6.73082
21
-1.50321
0
LINE
8
BLACK
6
CONTINUOUS
10
6.73082
20
-1.50321
11
6.72058
21
-1.50117
0
LINE
8
BLACK
6
CONTINUOUS
10
6.72058
20
-1.50117
11
6.71094
21
-1.49717
0
LINE
8
BLACK
6
CONTINUOUS
10
6.71094
20
-1.49717
11
6.70226
21
-1.49138
0
LINE
8
BLACK
6
CONTINUOUS
10
6.70226
20
-1.49138
11
6.69488
21
-1.48399
0
LINE
8
BLACK
6
CONTINUOUS
10
6.69488
20
-1.48399
11
6.68908
21
-1.47531
0
LINE
8
BLACK
6
CONTINUOUS
10
6.68908
20
-1.47531
11
6.68508
21
-1.46567
0
LINE
8
BLACK
6
CONTINUOUS
10
6.68508
20
-1.46567
11
6.68305
21
-1.45543
0
LINE
8
BLACK
6
CONTINUOUS
10
6.68305
20
-1.45543
11
6.68305
21
-1.44499
0
LINE
8
BLACK
6
CONTINUOUS
10
6.68305
20
-1.44499
11
6.68508
21
-1.43476
0
LINE
8
BLACK
6
CONTINUOUS
10
6.68772
20
-1.46487
11
6.69151
21
-1.47402
0
LINE
8
BLACK
6
CONTINUOUS
10
6.69151
20
-1.47402
11
6.69701
21
-1.48225
0
LINE
8
BLACK
6
CONTINUOUS
10
6.69701
20
-1.48225
11
6.70401
21
-1.48924
0
LINE
8
BLACK
6
CONTINUOUS
10
6.70401
20
-1.48924
11
6.71224
21
-1.49474
0
LINE
8
BLACK
6
CONTINUOUS
10
6.71224
20
-1.49474
11
6.72138
21
-1.49853
0
LINE
8
BLACK
6
CONTINUOUS
10
6.72138
20
-1.49853
11
6.73109
21
-1.50046
0
LINE
8
BLACK
6
CONTINUOUS
10
6.73109
20
-1.50046
11
6.74099
21
-1.50046
0
LINE
8
BLACK
6
CONTINUOUS
10
6.74099
20
-1.50046
11
6.7507
21
-1.49853
0
LINE
8
BLACK
6
CONTINUOUS
10
6.7507
20
-1.49853
11
6.75984
21
-1.49474
0
LINE
8
BLACK
6
CONTINUOUS
10
6.75984
20
-1.49474
11
6.76807
21
-1.48924
0
LINE
8
BLACK
6
CONTINUOUS
10
6.76807
20
-1.48924
11
6.77507
21
-1.48225
0
LINE
8
BLACK
6
CONTINUOUS
10
6.77507
20
-1.48225
11
6.78057
21
-1.47402
0
LINE
8
BLACK
6
CONTINUOUS
10
6.78057
20
-1.47402
11
6.78436
21
-1.46487
0
LINE
8
BLACK
6
CONTINUOUS
10
6.78436
20
-1.46487
11
6.78629
21
-1.45516
0
LINE
8
BLACK
6
CONTINUOUS
10
6.78629
20
-1.45516
11
6.78629
21
-1.44526
0
LINE
8
BLACK
6
CONTINUOUS
10
6.78629
20
-1.44526
11
6.78436
21
-1.43555
0
LINE
8
BLACK
6
CONTINUOUS
10
6.78436
20
-1.43555
11
6.78057
21
-1.42641
0
LINE
8
BLACK
6
CONTINUOUS
10
6.78057
20
-1.42641
11
6.77507
21
-1.41818
0
LINE
8
BLACK
6
CONTINUOUS
10
6.77507
20
-1.41818
11
6.76807
21
-1.41118
0
LINE
8
BLACK
6
CONTINUOUS
10
6.76807
20
-1.41118
11
6.75984
21
-1.40568
0
LINE
8
BLACK
6
CONTINUOUS
10
6.75984
20
-1.40568
11
6.7507
21
-1.40189
0
LINE
8
BLACK
6
CONTINUOUS
10
6.7507
20
-1.40189
11
6.74099
21
-1.39996
0
LINE
8
BLACK
6
CONTINUOUS
10
6.74099
20
-1.39996
11
6.73109
21
-1.39996
0
LINE
8
BLACK
6
CONTINUOUS
10
6.73109
20
-1.39996
11
6.72138
21
-1.40189
0
LINE
8
BLACK
6
CONTINUOUS
10
6.72138
20
-1.40189
11
6.71224
21
-1.40568
0
LINE
8
BLACK
6
CONTINUOUS
10
6.71224
20
-1.40568
11
6.70401
21
-1.41118
0
LINE
8
BLACK
6
CONTINUOUS
10
6.70401
20
-1.41118
11
6.69701
21
-1.41818
0
LINE
8
BLACK
6
CONTINUOUS
10
6.69701
20
-1.41818
11
6.69151
21
-1.42641
0
LINE
8
BLACK
6
CONTINUOUS
10
6.69151
20
-1.42641
11
6.68772
21
-1.43555
0
LINE
8
BLACK
6
CONTINUOUS
10
6.68772
20
-1.43555
11
6.68579
21
-1.44526
0
LINE
8
BLACK
6
CONTINUOUS
10
6.68579
20
-1.44526
11
6.68579
21
-1.45516
0
LINE
8
BLACK
6
CONTINUOUS
10
6.68579
20
-1.45516
11
6.68772
21
-1.46487
  0
ENDSEC
  0
EOF
